<?xml version="1.0" encoding="UTF-8"?>
<svg id="Calque_2" data-name="Calque 2" xmlns="http://www.w3.org/2000/svg" viewBox="0 0 368.04 294.09">
  <defs>
    <style>
      .cls-1 {
        fill: #2c4a9a;
      }
    </style>
  </defs>
  <g id="Calque_1-2" data-name="Calque 1">
    <path class="cls-1" d="M233.71,294.09h-112.48c-1.41,0-2.74-.65-3.61-1.76L5.65,149.5c-3.66-4.67-5.65-10.43-5.65-16.36V6.67C0,2.34,5.44.42,8.16,3.78l229.12,282.83c2.43,3,.3,7.48-3.57,7.48Z"/>
    <path class="cls-1" d="M215.05,191.6h110.16c1.11,0,2.16-.49,2.87-1.34l39.1-46.92c.56-.67.87-1.52.87-2.39V3.74c0-3.52-4.42-5.08-6.63-2.35l-149.26,184.13c-1.98,2.44-.24,6.08,2.9,6.08Z"/>
  </g>
</svg>