<?xml version="1.0" encoding="UTF-8"?>
<svg id="Calque_2" data-name="Calque 2" xmlns="http://www.w3.org/2000/svg" viewBox="0 0 101.43 78.58">
  <defs>
    <style>
      .cls-1 {
        fill: #2e4798;
      }
    </style>
  </defs>
  <g id="Calque_1-2" data-name="Calque 1">
    <g>
      <path class="cls-1" d="M26.18,53.59c.2-2.46,1.16-4.46.82-7.14-.68-5.29,3.05-11.86,9.1-9.83-1.79,2.01-3.4,4.47-1.2,6.44,1.38,1.24,4.65,2.06,6.2-.37,2.14-3.36.81-7.54-2.16-9.53-8.95-6.01-11.62,5.39-20.81,5.55-.67-3.73,2.22-5.54,4.09-7.77,6.82-8.12,17.26-9.46,25.88-3.55,6.74,4.62,9.85,11.75,5.81,18.9-2.14,3.79-7.18,4.63-12.16,4.15,4,6.36,11.14,8.26,18.04,6.11,14.78-4.6,16.14-22,9.49-33.73,7.61.84,9.9,18.91,10.35,24.58,1.09,13.6-7.75,29.8-25.93,29.13-7.63-.28-15.54-3.87-17.11-12.15,1.87.08,2.42,2.21,3.68,1.83,1.02-.31,3.37-1.58,3.35-3.44-.03-3.21-4.4-4.48-7.12-4.45-8.03.08-10.91,12.87-10.54,19.86-2.75-.32-6.14,1-8.55-.45s-2.7-5.49-3.58-8.82c7.27-1.69,11.76-8.02,12.35-15.33Z"/>
      <path class="cls-1" d="M96.56,51.75c-1.44-24.74-22.52-43.33-46.15-43.02S6.57,27.24,4.63,51.93c-.86,10.95,2.09,17.28,5.64,25.74.17.4-2.33,1.31-2.72.7-9.9-15.62-10.06-35.61-.44-52.62C15.26,11.32,31.32.33,49.79,0c18.28-.32,34.74,9.86,43.46,23.89,10.44,16.8,10.67,36.02,1.94,53.03-.82,1.59-4.06,1.57-3.66.66,3.72-8.35,5.61-15.96,5.03-25.83Z"/>
      <path class="cls-1" d="M85.14,78.13c-3.9.11-7.35.5-12.14-.29,12.03-10.68,13.25-26.81,9.95-41.83,9.43,10.37,7.8,30.93,2.19,42.12Z"/>
      <path class="cls-1" d="M66.65,42.27c-.65,4.7-4.43,8.24-8.89,9.35,3.24-6.6,4.38-13.19.99-20.1-2.55-5.2-7.89-9.77-15.01-12.08,6.23-2.92,11.91-2.21,16.34,2.86,4.89,5.59,7.74,11.4,6.56,19.98Z"/>
      <path class="cls-1" d="M21.95,44.38c1.15,4.76-2.35,17.46-7.27,15.98-3.22-.97-2-13.13-.22-15.71,2.28-.06,5.06,1.34,7.49-.28Z"/>
      <path class="cls-1" d="M40.54,77.5c-2.53.94-6.15,1.64-8.12.14-2.69-2.05-.93-6.88.51-9.97,2.45,4.11,3.38,7.13,7.61,9.83Z"/>
    </g>
  </g>
</svg>