<?xml version="1.0" encoding="UTF-8"?>
<svg id="Calque_2" data-name="Calque 2" xmlns="http://www.w3.org/2000/svg" viewBox="0 0 215.42 193.9">
  <defs>
    <style>
      .cls-1 {
        fill: #fff;
      }
    </style>
  </defs>
  <g id="Calque_1-2" data-name="Calque 1">
    <g>
      <path class="cls-1" d="M201.71,0l-86.02.16.25,21.2c15.99,2.98,29.34,12.19,36.52,24.36,8.87,15.04,9.94,30.98,3.58,46.88l21.8,12.55,37.58-61.76c-2.02-33.71,5.62-18.52-13.71-43.37ZM168.73,39.72l15.08-24.85,13.19,24.75c-9.56.76-18.52.51-28.27.09Z"/>
      <path class="cls-1" d="M101.36.22L14.56,0C-5.28,26.07,1.4,9.58.06,44.72l39.86,64.32,22.66-13.73c-7.79-16.34-7.09-33.34,1.9-49,7.26-12.63,20.86-22.12,37.18-25.01l-.3-21.09ZM19.32,40.89l13.92-25.48,15.25,25.17-29.17.31Z"/>
      <path class="cls-1" d="M110.16,34.99c-19.19-.86-35.94,13.77-37.91,33.44-2.05,20.47,11.69,39.01,32.38,41.38,22.09,2.52,40.89-15.14,40.62-37.78-.25-20.5-15.93-36.18-35.08-37.04ZM109.78,89.82c-8.82.36-16.62-6.6-17.39-15.51-.76-8.9,6.19-17.63,16.14-18.05,9.55-.4,17.02,7.29,17.42,16.11.41,9.06-7.02,17.07-16.17,17.45Z"/>
      <path class="cls-1" d="M169.21,118.18c-.14-.91-.98-1.56-1.76-2.56l-18.19-11.3c-21.02,25.32-58.03,26.51-80.06,1.2l-22.18,15.03,45.39,73.35,31.71-.17,43.73-72.03c1.09-1.19,1.54-2.35,1.36-3.51ZM93.74,165.38c5.36-10.1,8.69-18.03,14.42-26.93l15.12,26.99-29.54-.06Z"/>
    </g>
  </g>
</svg>